<?xml version="1.0" encoding="UTF-8"?>
<svg id="Layer_1" data-name="Layer 1" xmlns="http://www.w3.org/2000/svg" xmlns:xlink="http://www.w3.org/1999/xlink" viewBox="0 0 400 400">
  <defs>
    <style>
      .cls-1 {
        clip-path: url(#clippath);
      }

      .cls-2 {
        fill: none;
      }

      .cls-2, .cls-3, .cls-4, .cls-5 {
        stroke-width: 0px;
      }

      .cls-3 {
        fill: #21346a;
      }

      .cls-4 {
        fill: #ff7e3e;
      }

      .cls-5 {
        fill: #fff;
      }
    </style>
    <clipPath id="clippath">
      <rect class="cls-2" width="400" height="400"/>
    </clipPath>
  </defs>
  <rect class="cls-3" width="400" height="400"/>
  <g class="cls-1">
    <g>
      <g>
        <path class="cls-4" d="m43.53,145.15c-.84-1.34-1.88-2.52-3.13-3.53-1.25-1.01-2.67-1.8-4.24-2.37-1.58-.57-3.23-.85-4.96-.85-3.16,0-5.84.61-8.04,1.83-2.2,1.22-3.99,2.86-5.36,4.91-1.37,2.05-2.37,4.39-2.99,7.01-.63,2.62-.94,5.33-.94,8.13s.31,5.29.94,7.82c.62,2.53,1.62,4.81,2.99,6.83,1.37,2.03,3.16,3.65,5.36,4.87,2.2,1.22,4.88,1.83,8.04,1.83,4.29,0,7.64-1.31,10.05-3.93,2.41-2.62,3.89-6.08,4.42-10.36h13.58c-.36,3.99-1.28,7.59-2.77,10.81-1.49,3.22-3.46,5.96-5.9,8.22-2.44,2.26-5.3,3.99-8.58,5.18-3.28,1.19-6.88,1.79-10.81,1.79-4.88,0-9.28-.85-13.18-2.55-3.9-1.7-7.19-4.03-9.87-7.01-2.68-2.98-4.73-6.48-6.16-10.5-1.43-4.02-2.14-8.35-2.14-13s.71-9.19,2.14-13.27c1.43-4.08,3.48-7.64,6.16-10.68,2.68-3.04,5.97-5.42,9.87-7.15,3.9-1.73,8.29-2.59,13.18-2.59,3.51,0,6.83.51,9.96,1.52,3.13,1.01,5.93,2.49,8.4,4.42,2.47,1.94,4.51,4.33,6.12,7.19,1.61,2.86,2.62,6.14,3.04,9.83h-13.58c-.24-1.61-.77-3.08-1.61-4.42Z"/>
        <path class="cls-4" d="m64.16,158.81c1.13-3.01,2.74-5.57,4.82-7.68,2.08-2.11,4.59-3.75,7.5-4.91,2.92-1.16,6.19-1.74,9.83-1.74s6.92.58,9.87,1.74c2.95,1.16,5.46,2.8,7.55,4.91,2.08,2.11,3.69,4.68,4.82,7.68,1.13,3.01,1.7,6.36,1.7,10.05s-.57,7.03-1.7,10.01c-1.13,2.98-2.74,5.52-4.82,7.64-2.09,2.11-4.6,3.74-7.55,4.87-2.95,1.13-6.24,1.7-9.87,1.7s-6.91-.57-9.83-1.7c-2.92-1.13-5.42-2.75-7.5-4.87-2.09-2.11-3.69-4.66-4.82-7.64-1.13-2.98-1.7-6.31-1.7-10.01s.57-7.04,1.7-10.05Zm11.52,15.46c.36,1.76.97,3.34,1.83,4.74.86,1.4,2.01,2.52,3.44,3.35,1.43.83,3.22,1.25,5.36,1.25s3.95-.42,5.41-1.25c1.46-.83,2.62-1.95,3.48-3.35.86-1.4,1.47-2.98,1.83-4.74.36-1.76.54-3.56.54-5.4s-.18-3.66-.54-5.45c-.36-1.79-.97-3.36-1.83-4.73-.86-1.37-2.03-2.49-3.48-3.35-1.46-.86-3.26-1.3-5.41-1.3s-3.93.43-5.36,1.3c-1.43.86-2.58,1.98-3.44,3.35-.86,1.37-1.47,2.95-1.83,4.73s-.54,3.6-.54,5.45.18,3.65.54,5.4Z"/>
        <path class="cls-4" d="m127.24,145.73v6.25h.18c1.67-2.38,3.68-4.23,6.03-5.54,2.35-1.31,5.05-1.97,8.09-1.97s5.58.57,8,1.7c2.41,1.13,4.24,3.13,5.49,5.99,1.37-2.02,3.23-3.81,5.58-5.36,2.35-1.55,5.14-2.32,8.35-2.32,2.44,0,4.7.3,6.79.89,2.08.6,3.87,1.55,5.36,2.86,1.49,1.31,2.65,3.02,3.48,5.14.83,2.12,1.25,4.66,1.25,7.64v30.91h-12.69v-26.18c0-1.55-.06-3.01-.18-4.38-.12-1.37-.45-2.56-.98-3.57-.54-1.01-1.33-1.82-2.37-2.41-1.04-.59-2.46-.89-4.24-.89s-3.23.34-4.33,1.03c-1.1.69-1.97,1.58-2.59,2.68-.63,1.1-1.04,2.35-1.25,3.75-.21,1.4-.31,2.81-.31,4.24v25.73h-12.69v-25.91c0-1.37-.03-2.72-.09-4.06-.06-1.34-.31-2.58-.76-3.71-.45-1.13-1.19-2.04-2.23-2.72-1.04-.68-2.58-1.03-4.6-1.03-.6,0-1.38.13-2.37.4s-1.94.77-2.86,1.52c-.92.75-1.71,1.82-2.37,3.22-.66,1.4-.98,3.23-.98,5.49v26.8h-12.69v-46.19h11.97Z"/>
        <path class="cls-4" d="m204.34,145.73v5.9h.18c1.55-2.5,3.51-4.32,5.9-5.45,2.38-1.13,5-1.7,7.86-1.7,3.63,0,6.76.69,9.38,2.05,2.62,1.37,4.79,3.19,6.52,5.45,1.73,2.26,3.01,4.9,3.84,7.91.83,3.01,1.25,6.15,1.25,9.43,0,3.1-.42,6.08-1.25,8.93-.84,2.86-2.1,5.39-3.8,7.59-1.7,2.2-3.81,3.96-6.34,5.27-2.53,1.31-5.49,1.97-8.89,1.97-2.86,0-5.49-.58-7.91-1.74-2.41-1.16-4.39-2.87-5.94-5.14h-.18v21.89h-12.69v-62.36h12.06Zm16.48,36.63c1.4-.83,2.53-1.92,3.39-3.26.86-1.34,1.47-2.9,1.83-4.69.36-1.79.54-3.6.54-5.45s-.19-3.66-.58-5.45c-.39-1.79-1.03-3.38-1.92-4.78-.89-1.4-2.04-2.53-3.44-3.39-1.4-.86-3.11-1.3-5.14-1.3s-3.83.43-5.23,1.3c-1.4.86-2.53,1.98-3.39,3.35-.86,1.37-1.47,2.95-1.83,4.73-.36,1.79-.54,3.63-.54,5.54s.19,3.66.58,5.45c.39,1.79,1.01,3.35,1.88,4.69.86,1.34,2.01,2.43,3.44,3.26,1.43.83,3.16,1.25,5.18,1.25s3.83-.42,5.23-1.25Z"/>
        <path class="cls-4" d="m274.55,191.91v-6.43h-.27c-1.61,2.68-3.69,4.62-6.25,5.81-2.56,1.19-5.18,1.79-7.86,1.79-3.39,0-6.18-.45-8.35-1.34-2.17-.89-3.89-2.16-5.14-3.8-1.25-1.64-2.13-3.63-2.64-5.99-.51-2.35-.76-4.96-.76-7.82v-28.41h12.69v26.09c0,3.81.59,6.66,1.79,8.53,1.19,1.88,3.31,2.81,6.34,2.81,3.45,0,5.96-1.03,7.5-3.08,1.55-2.05,2.32-5.43,2.32-10.14v-24.21h12.69v46.19h-12.06Z"/>
        <path class="cls-4" d="m318.06,145.73v8.49h-9.29v22.87c0,2.14.36,3.57,1.07,4.29s2.14,1.07,4.29,1.07c.71,0,1.4-.03,2.05-.09.65-.06,1.28-.15,1.88-.27v9.83c-1.07.18-2.26.3-3.57.36-1.31.06-2.59.09-3.84.09-1.97,0-3.83-.13-5.58-.4-1.76-.27-3.31-.79-4.65-1.56-1.34-.77-2.4-1.88-3.17-3.31-.77-1.43-1.16-3.31-1.16-5.63v-27.25h-7.68v-8.49h7.68v-13.85h12.69v13.85h9.29Z"/>
        <path class="cls-4" d="m334.14,180.84c1.91,1.85,4.65,2.77,8.22,2.77,2.56,0,4.76-.64,6.61-1.92,1.85-1.28,2.98-2.64,3.39-4.06h11.17c-1.79,5.54-4.53,9.5-8.22,11.88-3.69,2.38-8.16,3.57-13.4,3.57-3.63,0-6.91-.58-9.83-1.74-2.92-1.16-5.39-2.81-7.42-4.96-2.03-2.14-3.59-4.7-4.69-7.68-1.1-2.98-1.65-6.25-1.65-9.83s.57-6.67,1.7-9.65c1.13-2.98,2.74-5.55,4.82-7.73,2.08-2.17,4.57-3.89,7.46-5.14,2.89-1.25,6.09-1.88,9.6-1.88,3.93,0,7.36.76,10.27,2.28,2.92,1.52,5.32,3.56,7.19,6.12,1.88,2.56,3.23,5.48,4.07,8.76.83,3.28,1.13,6.7.89,10.27h-33.32c.18,4.11,1.22,7.09,3.13,8.93Zm14.34-24.3c-1.52-1.67-3.83-2.5-6.92-2.5-2.03,0-3.71.34-5.05,1.03-1.34.69-2.41,1.53-3.22,2.55-.8,1.01-1.37,2.09-1.7,3.22-.33,1.13-.52,2.14-.58,3.04h20.64c-.6-3.22-1.65-5.66-3.17-7.33Z"/>
        <path class="cls-4" d="m380.33,145.73v8.58h.18c.59-1.43,1.4-2.75,2.41-3.98,1.01-1.22,2.17-2.26,3.48-3.13,1.31-.86,2.71-1.53,4.2-2.01,1.49-.48,3.04-.71,4.65-.71.83,0,1.76.15,2.77.45v11.79c-.6-.12-1.31-.22-2.14-.31-.83-.09-1.64-.13-2.41-.13-2.32,0-4.29.39-5.9,1.16-1.61.77-2.9,1.83-3.89,3.17-.98,1.34-1.68,2.9-2.1,4.69-.42,1.79-.63,3.72-.63,5.81v20.82h-12.69v-46.19h12.06Z"/>
      </g>
      <g>
        <path class="cls-5" d="m71.35,109.95v16.2h-2.16v-16.2h2.16Z"/>
        <path class="cls-5" d="m76.18,114.42v1.86h.04c.8-1.42,2.07-2.13,3.81-2.13.77,0,1.41.11,1.93.32.51.21.93.51,1.25.89.32.38.54.83.67,1.35.13.52.19,1.1.19,1.74v7.72h-1.93v-7.94c0-.73-.21-1.3-.64-1.72-.42-.42-1.01-.64-1.75-.64-.59,0-1.1.09-1.53.27-.43.18-.79.44-1.08.77-.29.33-.5.72-.65,1.17-.14.45-.22.93-.22,1.46v6.63h-1.93v-11.73h1.82Z"/>
        <path class="cls-5" d="m91.7,114.42v1.7h-2.34v7.28c0,.23.02.41.06.54.04.14.11.24.22.32.11.08.25.12.44.15s.43.03.74.03h.89v1.7h-1.48c-.5,0-.93-.03-1.28-.1-.36-.07-.64-.19-.86-.37-.22-.18-.38-.44-.49-.77-.11-.33-.16-.77-.16-1.32v-7.47h-2v-1.7h2v-3.52h1.93v3.52h2.34Z"/>
        <path class="cls-5" d="m95.29,114.42v2.47h.04c.47-.95,1.04-1.66,1.72-2.11s1.54-.67,2.59-.64v2.04c-.77,0-1.43.11-1.97.32-.54.21-.98.52-1.32.93-.33.41-.57.9-.73,1.49s-.23,1.25-.23,2.01v5.22h-1.93v-11.73h1.82Z"/>
        <path class="cls-5" d="m100.12,117.88c.24-.75.6-1.4,1.09-1.95.48-.55,1.08-.99,1.79-1.3.71-.32,1.53-.48,2.45-.48s1.76.16,2.46.48c.7.32,1.3.75,1.78,1.3.48.55.85,1.2,1.09,1.95s.36,1.55.36,2.42-.12,1.66-.36,2.41c-.24.74-.61,1.39-1.09,1.94-.48.55-1.08.98-1.78,1.29-.7.31-1.52.47-2.46.47s-1.74-.16-2.45-.47c-.71-.31-1.31-.74-1.79-1.29-.48-.55-.85-1.2-1.09-1.94-.24-.74-.36-1.54-.36-2.41s.12-1.67.36-2.42Zm1.96,4.31c.19.55.45,1.01.78,1.38.33.37.72.65,1.17.85.45.2.92.3,1.42.3s.97-.1,1.42-.3c.45-.2.84-.48,1.17-.85.33-.37.59-.83.78-1.38.19-.55.28-1.18.28-1.9s-.09-1.34-.28-1.9c-.19-.55-.45-1.02-.78-1.4-.33-.38-.72-.67-1.17-.86-.45-.2-.92-.3-1.42-.3s-.97.1-1.42.3c-.45.2-.84.48-1.17.86-.33.38-.59.84-.78,1.4-.19.55-.28,1.18-.28,1.9s.09,1.34.28,1.9Z"/>
        <path class="cls-5" d="m121.68,126.15v-1.59h-.05c-.32.65-.82,1.12-1.5,1.41-.68.29-1.43.43-2.25.43-.91,0-1.7-.17-2.37-.5-.67-.33-1.23-.78-1.68-1.34-.45-.56-.78-1.21-1.01-1.95s-.34-1.53-.34-2.36.11-1.62.33-2.36c.22-.74.55-1.39,1-1.94s1.01-.99,1.68-1.32,1.46-.49,2.35-.49c.3,0,.63.03.98.09.35.06.7.16,1.04.31s.68.33.99.57c.31.23.57.53.78.87h.05v-6.04h1.93v16.2h-1.93Zm-6.93-4.16c.14.52.36.99.66,1.4s.67.73,1.13.98c.46.24,1,.36,1.62.36.65,0,1.2-.13,1.66-.39.45-.26.82-.59,1.11-1.01s.5-.89.62-1.42.19-1.07.19-1.61c0-.57-.07-1.13-.2-1.67-.14-.54-.35-1.01-.65-1.42s-.68-.74-1.15-.99-1.04-.37-1.7-.37-1.2.13-1.66.39c-.45.26-.82.6-1.09,1.02-.27.42-.47.91-.59,1.45-.12.54-.18,1.1-.18,1.68s.07,1.08.22,1.6Z"/>
        <path class="cls-5" d="m134.18,126.15v-1.86h-.04c-.41.73-.93,1.26-1.57,1.6-.64.34-1.38.51-2.25.51-.77,0-1.41-.1-1.93-.31-.51-.2-.93-.5-1.25-.87-.32-.38-.54-.83-.67-1.35s-.19-1.1-.19-1.74v-7.72h1.93v7.94c0,.73.21,1.3.64,1.72.42.42,1.01.64,1.75.64.59,0,1.1-.09,1.53-.27.43-.18.79-.44,1.08-.77.29-.33.5-.72.65-1.17.14-.45.22-.93.22-1.46v-6.63h1.93v11.73h-1.82Z"/>
        <path class="cls-5" d="m145.62,116.46c-.48-.41-1.13-.61-1.95-.61-.7,0-1.28.13-1.75.39-.47.26-.84.6-1.12,1.02-.28.42-.48.91-.6,1.46-.12.55-.18,1.12-.18,1.71,0,.54.06,1.07.19,1.59.13.51.33.97.6,1.37.27.4.63.72,1.07.96.44.24.96.36,1.57.36.95,0,1.7-.25,2.24-.75.54-.5.87-1.2.99-2.11h1.97c-.21,1.45-.75,2.57-1.62,3.36-.87.79-2.05,1.18-3.55,1.18-.89,0-1.68-.14-2.37-.43-.69-.29-1.26-.7-1.72-1.23-.46-.53-.81-1.16-1.04-1.9-.24-.73-.35-1.54-.35-2.42s.11-1.7.34-2.46c.23-.76.57-1.43,1.03-2,.46-.57,1.04-1.01,1.74-1.34.7-.33,1.51-.49,2.43-.49.67,0,1.29.08,1.87.24.58.16,1.1.4,1.54.74.45.33.81.75,1.1,1.26.29.51.47,1.11.54,1.8h-2c-.15-.74-.47-1.32-.95-1.72Z"/>
        <path class="cls-5" d="m155.51,114.42v1.7h-2.34v7.28c0,.23.02.41.06.54.04.14.11.24.22.32.11.08.25.12.44.15s.43.03.74.03h.89v1.7h-1.48c-.5,0-.93-.03-1.28-.1-.36-.07-.64-.19-.86-.37-.22-.18-.38-.44-.49-.77-.11-.33-.16-.77-.16-1.32v-7.47h-2v-1.7h2v-3.52h1.93v3.52h2.34Z"/>
        <path class="cls-5" d="m157.46,112.31v-2.36h1.93v2.36h-1.93Zm1.93,2.11v11.73h-1.93v-11.73h1.93Z"/>
        <path class="cls-5" d="m161.82,117.88c.24-.75.61-1.4,1.09-1.95.48-.55,1.08-.99,1.79-1.3.71-.32,1.53-.48,2.45-.48s1.76.16,2.46.48,1.3.75,1.78,1.3c.48.55.85,1.2,1.09,1.95.24.75.36,1.55.36,2.42s-.12,1.66-.36,2.41c-.24.74-.61,1.39-1.09,1.94-.48.55-1.08.98-1.78,1.29-.7.31-1.52.47-2.46.47s-1.74-.16-2.45-.47c-.71-.31-1.31-.74-1.79-1.29-.48-.55-.85-1.2-1.09-1.94-.24-.74-.36-1.54-.36-2.41s.12-1.67.36-2.42Zm1.96,4.31c.19.55.45,1.01.78,1.38.33.37.72.65,1.17.85.45.2.92.3,1.42.3s.97-.1,1.42-.3c.45-.2.84-.48,1.17-.85.33-.37.59-.83.78-1.38s.28-1.18.28-1.9-.09-1.34-.28-1.9c-.19-.55-.45-1.02-.78-1.4-.33-.38-.72-.67-1.17-.86-.45-.2-.92-.3-1.42-.3s-.97.1-1.42.3c-.45.2-.84.48-1.17.86-.33.38-.59.84-.78,1.4-.19.55-.28,1.18-.28,1.9s.09,1.34.28,1.9Z"/>
        <path class="cls-5" d="m176.64,114.42v1.86h.04c.8-1.42,2.07-2.13,3.81-2.13.77,0,1.41.11,1.93.32.51.21.93.51,1.25.89s.54.83.67,1.35c.13.52.19,1.1.19,1.74v7.72h-1.93v-7.94c0-.73-.21-1.3-.64-1.72-.42-.42-1.01-.64-1.75-.64-.59,0-1.1.09-1.53.27-.43.18-.79.44-1.08.77-.29.33-.5.72-.65,1.17s-.22.93-.22,1.46v6.63h-1.93v-11.73h1.82Z"/>
        <path class="cls-5" d="m198.17,114.42v1.7h-2.34v7.28c0,.23.02.41.06.54.04.14.11.24.22.32.11.08.25.12.44.15s.43.03.74.03h.89v1.7h-1.48c-.5,0-.93-.03-1.28-.1-.36-.07-.64-.19-.86-.37-.22-.18-.38-.44-.49-.77-.11-.33-.16-.77-.16-1.32v-7.47h-2v-1.7h2v-3.52h1.93v3.52h2.34Z"/>
        <path class="cls-5" d="m199.74,117.88c.24-.75.6-1.4,1.09-1.95.48-.55,1.08-.99,1.79-1.3.71-.32,1.53-.48,2.45-.48s1.76.16,2.46.48c.7.32,1.3.75,1.78,1.3.48.55.85,1.2,1.09,1.95s.36,1.55.36,2.42-.12,1.66-.36,2.41c-.24.74-.61,1.39-1.09,1.94-.48.55-1.08.98-1.78,1.29-.7.31-1.52.47-2.46.47s-1.74-.16-2.45-.47c-.71-.31-1.31-.74-1.79-1.29-.48-.55-.85-1.2-1.09-1.94-.24-.74-.36-1.54-.36-2.41s.12-1.67.36-2.42Zm1.96,4.31c.19.55.45,1.01.78,1.38.33.37.72.65,1.17.85.45.2.92.3,1.42.3s.97-.1,1.42-.3c.45-.2.84-.48,1.17-.85.33-.37.59-.83.78-1.38.19-.55.28-1.18.28-1.9s-.09-1.34-.28-1.9c-.19-.55-.45-1.02-.78-1.4-.33-.38-.72-.67-1.17-.86-.45-.2-.92-.3-1.42-.3s-.97.1-1.42.3c-.45.2-.84.48-1.17.86-.33.38-.59.84-.78,1.4-.19.55-.28,1.18-.28,1.9s.09,1.34.28,1.9Z"/>
      </g>
      <g>
        <path class="cls-4" d="m101.74,261.28c.77,1.49,1.8,2.7,3.08,3.62,1.28.92,2.78,1.61,4.51,2.05,1.73.45,3.51.67,5.36.67,1.25,0,2.59-.1,4.02-.31,1.43-.21,2.77-.61,4.02-1.21,1.25-.6,2.29-1.41,3.13-2.46.83-1.04,1.25-2.37,1.25-3.98,0-1.73-.55-3.13-1.65-4.2-1.1-1.07-2.55-1.97-4.33-2.68-1.79-.71-3.81-1.34-6.07-1.88-2.26-.54-4.56-1.13-6.88-1.79-2.38-.59-4.71-1.32-6.97-2.19-2.26-.86-4.29-1.98-6.08-3.35-1.79-1.37-3.23-3.08-4.33-5.14-1.1-2.05-1.65-4.54-1.65-7.46,0-3.27.7-6.12,2.1-8.53,1.4-2.41,3.23-4.42,5.49-6.03,2.26-1.61,4.82-2.8,7.68-3.57,2.86-.77,5.72-1.16,8.58-1.16,3.33,0,6.54.37,9.6,1.12,3.07.75,5.79,1.95,8.17,3.62,2.38,1.67,4.27,3.8,5.67,6.39,1.4,2.59,2.1,5.73,2.1,9.43h-13.58c-.12-1.91-.52-3.48-1.21-4.74-.69-1.25-1.59-2.23-2.73-2.95-1.13-.71-2.43-1.22-3.89-1.52-1.46-.3-3.05-.45-4.78-.45-1.13,0-2.26.12-3.39.36-1.13.24-2.16.66-3.08,1.25-.92.6-1.68,1.34-2.28,2.23-.6.89-.89,2.03-.89,3.39,0,1.25.24,2.26.71,3.04.48.77,1.41,1.49,2.81,2.14,1.4.66,3.33,1.31,5.81,1.97,2.47.66,5.7,1.49,9.69,2.5,1.19.24,2.84.67,4.96,1.3,2.11.63,4.21,1.62,6.3,2.99,2.08,1.37,3.89,3.2,5.41,5.49,1.52,2.29,2.28,5.23,2.28,8.8,0,2.92-.57,5.63-1.7,8.13-1.13,2.5-2.81,4.66-5.05,6.48-2.23,1.82-5,3.23-8.31,4.24-3.31,1.01-7.13,1.52-11.48,1.52-3.52,0-6.92-.43-10.23-1.3-3.31-.86-6.22-2.22-8.76-4.06-2.53-1.85-4.54-4.2-6.03-7.06-1.49-2.86-2.2-6.25-2.14-10.18h13.58c0,2.14.39,3.96,1.16,5.45Z"/>
        <path class="cls-4" d="m166.15,239.12c-2.03,0-3.72.46-5.09,1.38-1.37.92-2.49,2.11-3.35,3.57-.86,1.46-1.47,3.07-1.83,4.82-.36,1.76-.54,3.5-.54,5.23s.18,3.37.54,5.09c.36,1.73.94,3.29,1.74,4.69.8,1.4,1.89,2.55,3.26,3.44,1.37.89,3.04,1.34,5,1.34,3.04,0,5.37-.85,7.01-2.55,1.64-1.7,2.66-3.98,3.08-6.83h12.24c-.83,6.14-3.22,10.81-7.15,14.03-3.93,3.22-8.96,4.82-15.1,4.82-3.46,0-6.63-.58-9.52-1.74-2.89-1.16-5.35-2.78-7.37-4.87-2.03-2.08-3.6-4.57-4.73-7.46-1.13-2.89-1.7-6.06-1.7-9.52s.52-6.89,1.56-9.96c1.04-3.07,2.58-5.72,4.6-7.95,2.02-2.23,4.5-3.98,7.41-5.23,2.92-1.25,6.25-1.88,10.01-1.88,2.74,0,5.37.36,7.91,1.07,2.53.71,4.79,1.8,6.79,3.26,2,1.46,3.62,3.28,4.87,5.45,1.25,2.17,1.97,4.75,2.14,7.73h-12.42c-.83-5.3-3.96-7.95-9.38-7.95Z"/>
        <path class="cls-4" d="m192.15,223.67v-10.45h12.69v10.45h-12.69Zm12.69,7.15v46.19h-12.69v-46.19h12.69Z"/>
        <path class="cls-4" d="m224.85,265.93c1.91,1.85,4.65,2.77,8.22,2.77,2.56,0,4.76-.64,6.61-1.92,1.85-1.28,2.98-2.64,3.39-4.06h11.17c-1.79,5.54-4.53,9.5-8.22,11.88-3.69,2.38-8.16,3.57-13.4,3.57-3.63,0-6.91-.58-9.83-1.74-2.92-1.16-5.39-2.81-7.42-4.96-2.03-2.14-3.59-4.7-4.69-7.68-1.1-2.98-1.65-6.25-1.65-9.83s.57-6.67,1.7-9.65c1.13-2.98,2.74-5.55,4.82-7.73,2.08-2.17,4.57-3.89,7.46-5.14,2.89-1.25,6.09-1.88,9.6-1.88,3.93,0,7.36.76,10.27,2.28,2.92,1.52,5.32,3.56,7.19,6.12,1.88,2.56,3.23,5.48,4.07,8.76.83,3.28,1.13,6.7.89,10.27h-33.32c.18,4.11,1.22,7.09,3.13,8.93Zm14.34-24.3c-1.52-1.67-3.83-2.5-6.92-2.5-2.03,0-3.71.34-5.05,1.03-1.34.69-2.41,1.53-3.22,2.55-.8,1.01-1.37,2.09-1.7,3.22-.33,1.13-.52,2.14-.58,3.04h20.64c-.6-3.22-1.65-5.66-3.17-7.33Z"/>
        <path class="cls-4" d="m271.04,230.82v6.43h.27c1.61-2.68,3.69-4.63,6.25-5.85,2.56-1.22,5.18-1.83,7.86-1.83,3.39,0,6.18.46,8.35,1.38,2.17.92,3.89,2.2,5.14,3.84,1.25,1.64,2.13,3.63,2.64,5.99.51,2.35.76,4.96.76,7.82v28.41h-12.69v-26.09c0-3.81-.6-6.66-1.79-8.53-1.19-1.88-3.31-2.81-6.34-2.81-3.45,0-5.96,1.03-7.5,3.08-1.55,2.06-2.32,5.44-2.32,10.14v24.21h-12.69v-46.19h12.06Z"/>
        <path class="cls-4" d="m330.45,239.12c-2.03,0-3.72.46-5.09,1.38-1.37.92-2.49,2.11-3.35,3.57-.86,1.46-1.47,3.07-1.83,4.82-.36,1.76-.54,3.5-.54,5.23s.18,3.37.54,5.09c.36,1.73.94,3.29,1.74,4.69.8,1.4,1.89,2.55,3.26,3.44,1.37.89,3.04,1.34,5,1.34,3.04,0,5.37-.85,7.01-2.55,1.64-1.7,2.66-3.98,3.08-6.83h12.24c-.83,6.14-3.22,10.81-7.15,14.03-3.93,3.22-8.96,4.82-15.1,4.82-3.46,0-6.63-.58-9.52-1.74-2.89-1.16-5.35-2.78-7.37-4.87-2.03-2.08-3.6-4.57-4.73-7.46-1.13-2.89-1.7-6.06-1.7-9.52s.52-6.89,1.56-9.96c1.04-3.07,2.58-5.72,4.6-7.95,2.02-2.23,4.5-3.98,7.41-5.23,2.92-1.25,6.25-1.88,10.01-1.88,2.74,0,5.37.36,7.91,1.07,2.53.71,4.79,1.8,6.79,3.26,2,1.46,3.62,3.28,4.87,5.45,1.25,2.17,1.97,4.75,2.14,7.73h-12.42c-.83-5.3-3.96-7.95-9.38-7.95Z"/>
        <path class="cls-4" d="m369.66,265.93c1.91,1.85,4.65,2.77,8.22,2.77,2.56,0,4.76-.64,6.61-1.92,1.85-1.28,2.98-2.64,3.39-4.06h11.17c-1.79,5.54-4.53,9.5-8.22,11.88-3.69,2.38-8.16,3.57-13.4,3.57-3.63,0-6.91-.58-9.83-1.74-2.92-1.16-5.39-2.81-7.42-4.96-2.03-2.14-3.59-4.7-4.69-7.68-1.1-2.98-1.65-6.25-1.65-9.83s.57-6.67,1.7-9.65c1.13-2.98,2.74-5.55,4.82-7.73,2.08-2.17,4.57-3.89,7.46-5.14,2.89-1.25,6.09-1.88,9.6-1.88,3.93,0,7.36.76,10.27,2.28,2.92,1.52,5.32,3.56,7.19,6.12,1.88,2.56,3.23,5.48,4.07,8.76.83,3.28,1.13,6.7.89,10.27h-33.32c.18,4.11,1.22,7.09,3.13,8.93Zm14.34-24.3c-1.52-1.67-3.83-2.5-6.92-2.5-2.03,0-3.71.34-5.05,1.03-1.34.69-2.41,1.53-3.22,2.55-.8,1.01-1.37,2.09-1.7,3.22-.33,1.13-.52,2.14-.58,3.04h20.64c-.6-3.22-1.65-5.66-3.17-7.33Z"/>
      </g>
    </g>
  </g>
</svg>