<?xml version="1.0" encoding="UTF-8"?>
<svg id="Layer_1" data-name="Layer 1" xmlns="http://www.w3.org/2000/svg" viewBox="0 0 400 400">
  <defs>
    <style>
      .cls-1 {
        fill: #fff;
      }

      .cls-1, .cls-2, .cls-3 {
        stroke-width: 0px;
      }

      .cls-2 {
        fill: #ffbf3c;
      }

      .cls-3 {
        fill: #002e6d;
      }
    </style>
  </defs>
  <rect class="cls-3" width="400" height="400"/>
  <g>
    <g>
      <path class="cls-2" d="m31.16,106c4.48,0,8.29.65,11.43,1.96,3.14,1.3,5.7,3.03,7.67,5.16,1.97,2.14,3.41,4.58,4.31,7.32.9,2.74,1.35,5.58,1.35,8.52s-.45,5.7-1.35,8.47c-.9,2.78-2.34,5.23-4.31,7.37-1.97,2.14-4.53,3.86-7.67,5.16-3.14,1.3-6.95,1.96-11.43,1.96H14.62v25.67H-1.13v-71.61H31.16Zm-4.31,33.7c1.81,0,3.54-.13,5.22-.4,1.67-.27,3.14-.79,4.41-1.55,1.27-.77,2.29-1.86,3.06-3.26.77-1.4,1.15-3.24,1.15-5.52s-.39-4.11-1.15-5.52c-.77-1.4-1.79-2.49-3.06-3.26-1.27-.77-2.74-1.29-4.41-1.55-1.67-.27-3.41-.4-5.22-.4h-12.23v21.46h12.23Z"/>
      <path class="cls-2" d="m77.4,193.05c-2.74,1.81-6.55,2.71-11.43,2.71-1.47,0-2.93-.05-4.36-.15-1.44-.1-2.89-.22-4.36-.35v-11.73c1.34.13,2.71.27,4.11.4,1.4.13,2.81.17,4.21.1,1.87-.2,3.26-.94,4.16-2.21.9-1.27,1.35-2.67,1.35-4.21,0-1.14-.2-2.21-.6-3.21l-18.15-48.64h15.14l11.73,35.5h.2l11.33-35.5h14.74l-21.66,58.27c-1.54,4.21-3.68,7.22-6.42,9.03Z"/>
      <path class="cls-2" d="m132.75,125.75v9.53h-10.43v25.67c0,2.41.4,4.01,1.2,4.81.8.8,2.41,1.2,4.81,1.2.8,0,1.57-.03,2.31-.1.73-.07,1.44-.17,2.11-.3v11.03c-1.2.2-2.54.33-4.01.4-1.47.07-2.91.1-4.31.1-2.21,0-4.3-.15-6.27-.45-1.97-.3-3.71-.89-5.22-1.75-1.5-.87-2.69-2.11-3.56-3.71-.87-1.6-1.3-3.71-1.3-6.32v-30.59h-8.62v-9.53h8.62v-15.54h14.24v15.54h10.43Z"/>
      <path class="cls-2" d="m147.8,106v26.98h.3c1.81-3.01,4.11-5.2,6.92-6.57,2.81-1.37,5.55-2.06,8.22-2.06,3.81,0,6.94.52,9.38,1.55,2.44,1.04,4.36,2.47,5.77,4.31,1.4,1.84,2.39,4.08,2.96,6.72.57,2.64.85,5.57.85,8.78v31.89h-14.24v-29.28c0-4.28-.67-7.47-2.01-9.58-1.34-2.11-3.71-3.16-7.12-3.16-3.88,0-6.69,1.15-8.42,3.46-1.74,2.31-2.61,6.1-2.61,11.38v27.18h-14.24v-71.61h14.24Z"/>
      <path class="cls-2" d="m187.31,140.45c1.27-3.38,3.07-6.25,5.42-8.63,2.34-2.37,5.15-4.21,8.42-5.52,3.28-1.3,6.95-1.96,11.03-1.96s7.77.65,11.08,1.96c3.31,1.3,6.13,3.14,8.47,5.52,2.34,2.37,4.14,5.25,5.42,8.63,1.27,3.38,1.91,7.14,1.91,11.28s-.64,7.89-1.91,11.23c-1.27,3.34-3.08,6.2-5.42,8.57-2.34,2.37-5.16,4.2-8.47,5.47-3.31,1.27-7,1.91-11.08,1.91s-7.76-.64-11.03-1.91c-3.28-1.27-6.08-3.09-8.42-5.47-2.34-2.37-4.15-5.23-5.42-8.57-1.27-3.34-1.91-7.09-1.91-11.23s.63-7.91,1.91-11.28Zm12.94,17.35c.4,1.97,1.09,3.74,2.06,5.32.97,1.57,2.26,2.82,3.86,3.76,1.6.94,3.61,1.4,6.02,1.4s4.43-.47,6.07-1.4c1.64-.94,2.94-2.19,3.91-3.76.97-1.57,1.65-3.34,2.06-5.32.4-1.97.6-3.99.6-6.07s-.2-4.11-.6-6.12c-.4-2.01-1.09-3.78-2.06-5.32-.97-1.54-2.27-2.79-3.91-3.76-1.64-.97-3.66-1.45-6.07-1.45s-4.41.49-6.02,1.45c-1.6.97-2.89,2.22-3.86,3.76-.97,1.54-1.65,3.31-2.06,5.32-.4,2.01-.6,4.05-.6,6.12s.2,4.1.6,6.07Z"/>
      <path class="cls-2" d="m255.8,125.75v7.22h.3c1.81-3.01,4.14-5.2,7.02-6.57,2.87-1.37,5.82-2.06,8.83-2.06,3.81,0,6.94.52,9.38,1.55,2.44,1.04,4.36,2.47,5.77,4.31,1.4,1.84,2.39,4.08,2.96,6.72.57,2.64.85,5.57.85,8.78v31.89h-14.24v-29.28c0-4.28-.67-7.47-2.01-9.58-1.34-2.11-3.71-3.16-7.12-3.16-3.88,0-6.69,1.15-8.42,3.46-1.74,2.31-2.61,6.1-2.61,11.38v27.18h-14.24v-51.85h13.54Z"/>
    </g>
    <g>
      <path class="cls-1" d="m61.11,74.09v16.29h-2.17v-16.29h2.17Z"/>
      <path class="cls-1" d="m65.97,78.58v1.87h.05c.81-1.43,2.08-2.14,3.83-2.14.78,0,1.42.11,1.94.32.52.21.94.51,1.25.89.32.38.54.83.67,1.36.13.53.19,1.11.19,1.75v7.76h-1.94v-7.98c0-.73-.21-1.31-.64-1.73-.43-.43-1.01-.64-1.76-.64-.59,0-1.11.09-1.54.27-.43.18-.8.44-1.08.78-.29.33-.51.73-.65,1.18s-.22.94-.22,1.47v6.66h-1.94v-11.8h1.82Z"/>
      <path class="cls-1" d="m81.57,78.58v1.71h-2.35v7.32c0,.23.02.41.06.55.04.14.11.24.22.32.11.08.25.13.44.15.19.02.44.03.74.03h.89v1.71h-1.48c-.5,0-.93-.03-1.29-.1-.36-.07-.65-.19-.87-.38-.22-.18-.38-.44-.49-.78-.11-.33-.16-.78-.16-1.32v-7.51h-2.01v-1.71h2.01v-3.54h1.94v3.54h2.35Z"/>
      <path class="cls-1" d="m85.18,78.58v2.49h.05c.47-.96,1.05-1.67,1.73-2.12s1.55-.67,2.6-.64v2.05c-.78,0-1.44.11-1.98.32-.55.21-.99.52-1.32.94-.33.41-.58.91-.73,1.49-.15.59-.23,1.26-.23,2.02v5.25h-1.94v-11.8h1.83Z"/>
      <path class="cls-1" d="m90.04,82.06c.24-.75.61-1.41,1.1-1.96.49-.56,1.09-.99,1.8-1.31.71-.32,1.54-.48,2.46-.48s1.77.16,2.48.48c.71.32,1.3.76,1.79,1.31.49.56.85,1.21,1.1,1.96.24.75.37,1.56.37,2.43s-.12,1.67-.37,2.42c-.24.75-.61,1.4-1.1,1.95-.49.56-1.08.99-1.79,1.3-.71.31-1.53.47-2.48.47s-1.75-.16-2.46-.47c-.72-.31-1.32-.74-1.8-1.3-.49-.56-.85-1.2-1.1-1.95-.24-.74-.37-1.55-.37-2.42s.12-1.68.37-2.43Zm1.97,4.33c.19.56.45,1.02.79,1.39.33.37.73.66,1.17.86.45.2.92.3,1.43.3s.98-.1,1.43-.3c.45-.2.84-.48,1.18-.86.33-.37.6-.84.79-1.39.19-.56.29-1.19.29-1.91s-.1-1.35-.29-1.91c-.19-.56-.45-1.02-.79-1.4-.33-.38-.73-.67-1.18-.87-.45-.2-.92-.3-1.43-.3s-.98.1-1.43.3c-.45.2-.84.49-1.17.87-.33.38-.6.85-.79,1.4-.19.56-.29,1.19-.29,1.91s.09,1.35.29,1.91Z"/>
      <path class="cls-1" d="m111.71,90.38v-1.6h-.05c-.32.65-.82,1.13-1.51,1.41-.68.29-1.44.43-2.26.43-.91,0-1.71-.17-2.38-.5-.68-.33-1.24-.78-1.69-1.35-.45-.56-.79-1.22-1.01-1.96-.23-.75-.34-1.54-.34-2.37s.11-1.63.33-2.37c.22-.74.56-1.4,1-1.95.45-.56,1.01-1,1.69-1.32.68-.33,1.46-.49,2.36-.49.3,0,.63.03.98.09.35.06.7.16,1.05.31s.68.33.99.57c.31.24.57.53.79.88h.05v-6.07h1.94v16.29h-1.94Zm-6.97-4.19c.14.52.37.99.66,1.4.3.41.68.74,1.14.98.46.24,1.01.37,1.63.37s1.21-.13,1.67-.39c.46-.26.83-.6,1.12-1.02s.5-.89.63-1.43c.13-.53.19-1.07.19-1.62,0-.58-.07-1.14-.21-1.68s-.35-1.02-.65-1.43-.68-.74-1.15-.99c-.47-.25-1.04-.38-1.71-.38s-1.21.13-1.67.39c-.46.26-.82.6-1.09,1.03-.27.43-.47.91-.59,1.46-.12.55-.18,1.11-.18,1.69s.07,1.08.22,1.61Z"/>
      <path class="cls-1" d="m124.28,90.38v-1.87h-.05c-.41.73-.94,1.27-1.57,1.61-.64.34-1.39.51-2.26.51-.78,0-1.42-.1-1.94-.31-.52-.2-.94-.5-1.25-.88-.32-.38-.54-.83-.67-1.36-.13-.52-.19-1.11-.19-1.75v-7.76h1.94v7.98c0,.73.21,1.31.64,1.73.43.43,1.01.64,1.76.64.59,0,1.11-.09,1.54-.27.43-.18.79-.44,1.08-.78.29-.33.51-.73.65-1.18.14-.45.22-.94.22-1.47v-6.66h1.94v11.8h-1.83Z"/>
      <path class="cls-1" d="m135.78,80.64c-.49-.41-1.14-.62-1.96-.62-.7,0-1.29.13-1.76.39-.47.26-.85.6-1.13,1.03-.28.43-.48.92-.6,1.47-.12.56-.18,1.13-.18,1.72,0,.55.06,1.08.19,1.6.13.52.33.98.6,1.38.27.4.63.73,1.07.97.44.24.97.37,1.57.37.96,0,1.71-.25,2.25-.75.54-.5.87-1.21.99-2.12h1.98c-.21,1.46-.76,2.59-1.63,3.38-.87.79-2.06,1.19-3.57,1.19-.9,0-1.69-.14-2.38-.43-.69-.29-1.27-.7-1.73-1.23-.46-.53-.81-1.17-1.05-1.91-.24-.74-.35-1.55-.35-2.43s.11-1.71.34-2.48c.23-.77.57-1.44,1.04-2.01.46-.57,1.05-1.02,1.75-1.35.7-.33,1.51-.49,2.44-.49.67,0,1.3.08,1.88.24.59.16,1.1.41,1.55.74.45.33.82.76,1.11,1.27.29.51.47,1.11.55,1.81h-2.01c-.15-.74-.47-1.32-.96-1.73Z"/>
      <path class="cls-1" d="m145.72,78.58v1.71h-2.35v7.32c0,.23.02.41.06.55.04.14.11.24.22.32.11.08.25.13.44.15.19.02.44.03.74.03h.89v1.71h-1.48c-.5,0-.93-.03-1.29-.1-.36-.07-.65-.19-.87-.38-.22-.18-.38-.44-.49-.78-.11-.33-.16-.78-.16-1.32v-7.51h-2.01v-1.71h2.01v-3.54h1.94v3.54h2.35Z"/>
      <path class="cls-1" d="m147.69,76.46v-2.37h1.94v2.37h-1.94Zm1.94,2.12v11.8h-1.94v-11.8h1.94Z"/>
      <path class="cls-1" d="m152.07,82.06c.24-.75.61-1.41,1.1-1.96.49-.56,1.09-.99,1.8-1.31.71-.32,1.54-.48,2.46-.48s1.77.16,2.48.48c.71.32,1.3.76,1.79,1.31.49.56.85,1.21,1.1,1.96.24.75.37,1.56.37,2.43s-.12,1.67-.37,2.42c-.24.75-.61,1.4-1.1,1.95-.49.56-1.08.99-1.79,1.3-.71.31-1.53.47-2.48.47s-1.75-.16-2.46-.47c-.72-.31-1.32-.74-1.8-1.3-.49-.56-.85-1.2-1.1-1.95-.24-.74-.37-1.55-.37-2.42s.12-1.68.37-2.43Zm1.97,4.33c.19.56.45,1.02.79,1.39.33.37.73.66,1.17.86.45.2.92.3,1.43.3s.98-.1,1.43-.3c.45-.2.84-.48,1.18-.86.33-.37.6-.84.79-1.39.19-.56.29-1.19.29-1.91s-.1-1.35-.29-1.91c-.19-.56-.45-1.02-.79-1.4-.33-.38-.73-.67-1.18-.87-.45-.2-.92-.3-1.43-.3s-.98.1-1.43.3c-.45.2-.84.49-1.17.87-.33.38-.6.85-.79,1.4-.19.56-.29,1.19-.29,1.91s.09,1.35.29,1.91Z"/>
      <path class="cls-1" d="m166.96,78.58v1.87h.05c.81-1.43,2.08-2.14,3.83-2.14.78,0,1.42.11,1.94.32.52.21.94.51,1.25.89.32.38.54.83.67,1.36.13.53.19,1.11.19,1.75v7.76h-1.94v-7.98c0-.73-.21-1.31-.64-1.73-.43-.43-1.01-.64-1.76-.64-.59,0-1.11.09-1.54.27-.43.18-.8.44-1.08.78-.29.33-.51.73-.65,1.18s-.22.94-.22,1.47v6.66h-1.94v-11.8h1.82Z"/>
      <path class="cls-1" d="m188.61,78.58v1.71h-2.35v7.32c0,.23.02.41.06.55.04.14.11.24.22.32.11.08.25.13.44.15.19.02.44.03.74.03h.89v1.71h-1.48c-.5,0-.93-.03-1.29-.1-.36-.07-.65-.19-.87-.38-.22-.18-.38-.44-.49-.78-.11-.33-.16-.78-.16-1.32v-7.51h-2.01v-1.71h2.01v-3.54h1.94v3.54h2.35Z"/>
      <path class="cls-1" d="m190.19,82.06c.24-.75.61-1.41,1.1-1.96.49-.56,1.09-.99,1.8-1.31.71-.32,1.54-.48,2.46-.48s1.77.16,2.48.48c.71.32,1.3.76,1.79,1.31.49.56.85,1.21,1.1,1.96.24.75.37,1.56.37,2.43s-.12,1.67-.37,2.42c-.24.75-.61,1.4-1.1,1.95-.49.56-1.08.99-1.79,1.3-.71.31-1.53.47-2.48.47s-1.75-.16-2.46-.47c-.72-.31-1.32-.74-1.8-1.3-.49-.56-.85-1.2-1.1-1.95-.24-.74-.37-1.55-.37-2.42s.12-1.68.37-2.43Zm1.97,4.33c.19.56.45,1.02.79,1.39.33.37.73.66,1.17.86.45.2.92.3,1.43.3s.98-.1,1.43-.3c.45-.2.84-.48,1.18-.86.33-.37.6-.84.79-1.39.19-.56.29-1.19.29-1.91s-.1-1.35-.29-1.91c-.19-.56-.45-1.02-.79-1.4-.33-.38-.73-.67-1.18-.87-.45-.2-.92-.3-1.43-.3s-.98.1-1.43.3c-.45.2-.84.49-1.17.87-.33.38-.6.85-.79,1.4-.19.56-.29,1.19-.29,1.91s.09,1.35.29,1.91Z"/>
    </g>
    <g>
      <path class="cls-1" d="m32.41,196.18c4.48,0,8.29.65,11.43,1.96,3.14,1.3,5.7,3.03,7.67,5.16,1.97,2.14,3.41,4.58,4.31,7.32.9,2.74,1.35,5.58,1.35,8.52s-.45,5.7-1.35,8.47c-.9,2.78-2.34,5.23-4.31,7.37-1.97,2.14-4.53,3.86-7.67,5.16-3.14,1.3-6.95,1.96-11.43,1.96H15.86v25.67H.12v-71.61h32.29Zm-4.31,33.7c1.81,0,3.54-.13,5.22-.4,1.67-.27,3.14-.79,4.41-1.55,1.27-.77,2.29-1.86,3.06-3.26.77-1.4,1.15-3.24,1.15-5.52s-.39-4.11-1.15-5.52c-.77-1.4-1.79-2.49-3.06-3.26-1.27-.77-2.74-1.29-4.41-1.55-1.67-.27-3.41-.4-5.22-.4h-12.23v21.46h12.23Z"/>
      <path class="cls-1" d="m73.02,215.94v9.63h.2c.67-1.6,1.57-3.09,2.71-4.46,1.14-1.37,2.44-2.54,3.91-3.51,1.47-.97,3.04-1.72,4.71-2.26,1.67-.53,3.41-.8,5.22-.8.94,0,1.97.17,3.11.5v13.24c-.67-.13-1.47-.25-2.41-.35-.94-.1-1.84-.15-2.71-.15-2.61,0-4.81.44-6.62,1.3-1.81.87-3.26,2.06-4.36,3.56-1.1,1.5-1.89,3.26-2.36,5.26-.47,2.01-.7,4.18-.7,6.52v23.37h-14.24v-51.85h13.54Z"/>
      <path class="cls-1" d="m90.98,230.63c1.27-3.38,3.07-6.25,5.42-8.63,2.34-2.37,5.15-4.21,8.42-5.52,3.28-1.3,6.95-1.96,11.03-1.96s7.77.65,11.08,1.96c3.31,1.3,6.13,3.14,8.47,5.52,2.34,2.37,4.14,5.25,5.42,8.63,1.27,3.38,1.91,7.14,1.91,11.28s-.64,7.89-1.91,11.23c-1.27,3.34-3.08,6.2-5.42,8.57-2.34,2.37-5.16,4.2-8.47,5.47-3.31,1.27-7,1.91-11.08,1.91s-7.76-.64-11.03-1.91c-3.28-1.27-6.08-3.09-8.42-5.47-2.34-2.37-4.15-5.23-5.42-8.57-1.27-3.34-1.91-7.09-1.91-11.23s.63-7.91,1.91-11.28Zm12.94,17.35c.4,1.97,1.09,3.74,2.06,5.32.97,1.57,2.26,2.82,3.86,3.76,1.6.94,3.61,1.4,6.02,1.4s4.43-.47,6.07-1.4c1.64-.94,2.94-2.19,3.91-3.76.97-1.57,1.65-3.34,2.06-5.32.4-1.97.6-3.99.6-6.07s-.2-4.11-.6-6.12c-.4-2.01-1.09-3.78-2.06-5.32-.97-1.54-2.27-2.79-3.91-3.76-1.64-.97-3.66-1.45-6.07-1.45s-4.41.49-6.02,1.45c-1.6.97-2.89,2.22-3.86,3.76-.97,1.54-1.65,3.31-2.06,5.32-.4,2.01-.6,4.05-.6,6.12s.2,4.1.6,6.07Z"/>
      <path class="cls-1" d="m194.92,271.6c-.57,2.67-1.79,5.16-3.66,7.47-1.87,2.31-4.58,4.26-8.12,5.87-3.54,1.6-8.29,2.41-14.24,2.41-2.54,0-5.13-.32-7.77-.95-2.64-.64-5.05-1.62-7.22-2.96-2.17-1.34-3.98-3.06-5.42-5.16-1.44-2.11-2.26-4.63-2.46-7.57h14.14c.67,2.67,1.97,4.53,3.91,5.57,1.94,1.04,4.18,1.55,6.72,1.55,4.01,0,6.94-1.2,8.78-3.61,1.84-2.41,2.72-5.45,2.66-9.13v-6.82h-.2c-1.54,2.74-3.73,4.76-6.57,6.07-2.84,1.3-5.83,1.96-8.98,1.96-3.88,0-7.22-.68-10.03-2.06-2.81-1.37-5.11-3.24-6.92-5.62-1.81-2.37-3.13-5.15-3.96-8.32-.84-3.17-1.25-6.53-1.25-10.08,0-3.34.48-6.57,1.45-9.68.97-3.11,2.39-5.85,4.26-8.22,1.87-2.37,4.19-4.26,6.97-5.67,2.77-1.4,5.97-2.11,9.58-2.11,3.41,0,6.4.64,8.98,1.91,2.57,1.27,4.73,3.41,6.47,6.42h.2v-6.92h13.54v48.54c0,2.07-.29,4.45-.85,7.12Zm-19.51-17.25c1.54-.8,2.81-1.87,3.81-3.21,1-1.34,1.75-2.86,2.26-4.56s.75-3.49.75-5.37c0-2.14-.2-4.16-.6-6.07-.4-1.91-1.07-3.59-2.01-5.06-.94-1.47-2.17-2.64-3.71-3.51-1.54-.87-3.48-1.3-5.82-1.3-2.01,0-3.73.4-5.16,1.2-1.44.8-2.64,1.89-3.61,3.26-.97,1.37-1.67,2.94-2.11,4.71-.44,1.77-.65,3.63-.65,5.57s.18,3.73.55,5.57c.37,1.84,1,3.49,1.91,4.96.9,1.47,2.09,2.67,3.56,3.61,1.47.94,3.31,1.4,5.52,1.4,2.01,0,3.78-.4,5.32-1.2Z"/>
      <path class="cls-1" d="m214.73,215.94v9.63h.2c.67-1.6,1.57-3.09,2.71-4.46,1.14-1.37,2.44-2.54,3.91-3.51,1.47-.97,3.04-1.72,4.71-2.26,1.67-.53,3.41-.8,5.22-.8.94,0,1.97.17,3.11.5v13.24c-.67-.13-1.47-.25-2.41-.35-.94-.1-1.84-.15-2.71-.15-2.61,0-4.81.44-6.62,1.3-1.81.87-3.26,2.06-4.36,3.56-1.1,1.5-1.89,3.26-2.36,5.26-.47,2.01-.7,4.18-.7,6.52v23.37h-14.24v-51.85h13.54Z"/>
      <path class="cls-1" d="m233.58,231.88c.2-3.34,1.04-6.12,2.51-8.32,1.47-2.21,3.34-3.98,5.62-5.32,2.27-1.34,4.83-2.29,7.67-2.86,2.84-.57,5.7-.85,8.57-.85,2.61,0,5.25.18,7.92.55,2.67.37,5.11,1.09,7.32,2.16,2.21,1.07,4.01,2.56,5.42,4.46,1.4,1.91,2.11,4.43,2.11,7.57v26.98c0,2.34.13,4.58.4,6.72.27,2.14.73,3.74,1.4,4.81h-14.44c-.27-.8-.49-1.62-.65-2.46-.17-.84-.29-1.69-.35-2.56-2.27,2.34-4.95,3.98-8.02,4.91-3.08.94-6.22,1.4-9.43,1.4-2.47,0-4.78-.3-6.92-.9-2.14-.6-4.01-1.54-5.62-2.81-1.6-1.27-2.86-2.87-3.76-4.81-.9-1.94-1.35-4.24-1.35-6.92,0-2.94.52-5.37,1.55-7.27,1.04-1.91,2.37-3.43,4.01-4.56,1.64-1.14,3.51-1.99,5.62-2.56,2.11-.57,4.23-1.02,6.37-1.35,2.14-.33,4.24-.6,6.32-.8,2.07-.2,3.91-.5,5.52-.9,1.6-.4,2.87-.99,3.81-1.76.94-.77,1.37-1.89,1.3-3.36,0-1.54-.25-2.76-.75-3.66s-1.17-1.6-2.01-2.11c-.84-.5-1.81-.84-2.91-1-1.1-.17-2.29-.25-3.56-.25-2.81,0-5.01.6-6.62,1.81s-2.54,3.21-2.81,6.02h-14.24Zm32.89,10.53c-.6.54-1.35.95-2.26,1.25s-1.87.55-2.91.75c-1.04.2-2.12.37-3.26.5-1.14.13-2.27.3-3.41.5-1.07.2-2.12.47-3.16.8-1.04.33-1.94.79-2.71,1.35-.77.57-1.39,1.29-1.86,2.16-.47.87-.7,1.97-.7,3.31s.23,2.34.7,3.21c.47.87,1.1,1.55,1.91,2.06.8.5,1.74.85,2.81,1.05,1.07.2,2.17.3,3.31.3,2.81,0,4.98-.47,6.52-1.4,1.54-.94,2.67-2.06,3.41-3.36.73-1.3,1.19-2.62,1.35-3.96.17-1.34.25-2.41.25-3.21v-5.32Z"/>
      <path class="cls-1" d="m299.57,215.94v7.02h.2c1.87-2.67,4.13-4.75,6.77-6.22,2.64-1.47,5.67-2.21,9.08-2.21s6.27.64,8.98,1.91c2.71,1.27,4.76,3.51,6.17,6.72,1.54-2.27,3.63-4.28,6.27-6.02,2.64-1.74,5.77-2.61,9.38-2.61,2.74,0,5.28.34,7.62,1,2.34.67,4.35,1.74,6.02,3.21,1.67,1.47,2.97,3.39,3.91,5.77.94,2.37,1.4,5.23,1.4,8.57v34.7h-14.24v-29.38c0-1.74-.07-3.38-.2-4.91-.13-1.54-.5-2.87-1.1-4.01-.6-1.14-1.49-2.04-2.66-2.71-1.17-.67-2.76-1-4.76-1s-3.63.39-4.86,1.15c-1.24.77-2.21,1.77-2.91,3.01-.7,1.24-1.17,2.64-1.4,4.21-.24,1.57-.35,3.16-.35,4.76v28.88h-14.24v-29.08c0-1.54-.03-3.06-.1-4.56-.07-1.5-.35-2.89-.85-4.16-.5-1.27-1.34-2.29-2.51-3.06-1.17-.77-2.89-1.15-5.16-1.15-.67,0-1.55.15-2.66.45-1.1.3-2.17.87-3.21,1.71-1.04.84-1.92,2.04-2.66,3.61-.74,1.57-1.1,3.63-1.1,6.17v30.09h-14.24v-51.85h13.44Z"/>
      <path class="cls-1" d="m400.66,234.29v12.23h-30.19v-12.23h30.19Z"/>
      <path class="cls-1" d="m12.45,297.41v7.02h.2c1.87-2.67,4.13-4.75,6.77-6.22,2.64-1.47,5.67-2.21,9.08-2.21s6.27.64,8.98,1.91c2.71,1.27,4.76,3.51,6.17,6.72,1.54-2.27,3.63-4.28,6.27-6.02,2.64-1.74,5.77-2.61,9.38-2.61,2.74,0,5.28.34,7.62,1,2.34.67,4.35,1.74,6.02,3.21,1.67,1.47,2.97,3.39,3.91,5.77.94,2.37,1.4,5.23,1.4,8.57v34.7h-14.24v-29.38c0-1.74-.07-3.38-.2-4.91-.13-1.54-.5-2.87-1.1-4.01-.6-1.14-1.49-2.04-2.66-2.71-1.17-.67-2.76-1-4.76-1s-3.63.39-4.86,1.15c-1.24.77-2.21,1.77-2.91,3.01-.7,1.24-1.17,2.64-1.4,4.21-.24,1.57-.35,3.16-.35,4.76v28.88h-14.24v-29.08c0-1.54-.03-3.06-.1-4.56-.07-1.5-.35-2.89-.85-4.16-.5-1.27-1.34-2.29-2.51-3.06-1.17-.77-2.89-1.15-5.16-1.15-.67,0-1.55.15-2.66.45-1.1.3-2.17.87-3.21,1.71-1.04.84-1.92,2.04-2.66,3.61-.74,1.57-1.1,3.63-1.1,6.17v30.09H-.99v-51.85h13.44Z"/>
      <path class="cls-1" d="m83.86,289.39v-11.73h14.24v11.73h-14.24Zm14.24,8.02v51.85h-14.24v-51.85h14.24Z"/>
      <path class="cls-1" d="m116.85,297.41v7.22h.3c1.81-3.01,4.14-5.2,7.02-6.57,2.87-1.37,5.82-2.06,8.83-2.06,3.81,0,6.94.52,9.38,1.55,2.44,1.04,4.36,2.47,5.77,4.31,1.4,1.84,2.39,4.08,2.96,6.72.57,2.64.85,5.57.85,8.78v31.89h-14.24v-29.28c0-4.28-.67-7.47-2.01-9.58-1.34-2.11-3.71-3.16-7.12-3.16-3.88,0-6.69,1.15-8.42,3.46-1.74,2.31-2.61,6.1-2.61,11.38v27.18h-14.24v-51.85h13.54Z"/>
      <path class="cls-1" d="m205.75,353.07c-.57,2.67-1.79,5.16-3.66,7.47-1.87,2.31-4.58,4.26-8.12,5.87-3.54,1.6-8.29,2.41-14.24,2.41-2.54,0-5.13-.32-7.77-.95-2.64-.64-5.05-1.62-7.22-2.96-2.17-1.34-3.98-3.06-5.42-5.16-1.44-2.11-2.26-4.63-2.46-7.57h14.14c.67,2.67,1.97,4.53,3.91,5.57,1.94,1.04,4.18,1.55,6.72,1.55,4.01,0,6.94-1.2,8.78-3.61,1.84-2.41,2.72-5.45,2.66-9.13v-6.82h-.2c-1.54,2.74-3.73,4.76-6.57,6.07-2.84,1.3-5.83,1.96-8.98,1.96-3.88,0-7.22-.68-10.03-2.06-2.81-1.37-5.11-3.24-6.92-5.62-1.81-2.37-3.13-5.15-3.96-8.32-.84-3.17-1.25-6.53-1.25-10.08,0-3.34.48-6.57,1.45-9.68.97-3.11,2.39-5.85,4.26-8.22,1.87-2.37,4.19-4.26,6.97-5.67,2.77-1.4,5.97-2.11,9.58-2.11,3.41,0,6.4.64,8.98,1.91,2.57,1.27,4.73,3.41,6.47,6.42h.2v-6.92h13.54v48.54c0,2.07-.29,4.45-.85,7.12Zm-19.51-17.25c1.54-.8,2.81-1.87,3.81-3.21,1-1.34,1.75-2.86,2.26-4.56s.75-3.49.75-5.37c0-2.14-.2-4.16-.6-6.07-.4-1.91-1.07-3.59-2.01-5.06-.94-1.47-2.17-2.64-3.71-3.51-1.54-.87-3.48-1.3-5.82-1.3-2.01,0-3.73.4-5.16,1.2-1.44.8-2.64,1.89-3.61,3.26-.97,1.37-1.67,2.94-2.11,4.71-.44,1.77-.65,3.63-.65,5.57s.18,3.73.55,5.57c.37,1.84,1,3.49,1.91,4.96.9,1.47,2.09,2.67,3.56,3.61,1.47.94,3.31,1.4,5.52,1.4,2.01,0,3.78-.4,5.32-1.2Z"/>
    </g>
  </g>
</svg>